<svg width="256" height="285" viewBox="0 0 256 285" fill="none" xmlns="http://www.w3.org/2000/svg">
<path d="M103.154 151.096C109.314 154.676 113.104 161.263 113.104 168.387V242.128C113.104 249.249 109.318 255.833 103.163 259.415L95.9327 263.622C90.0836 267.025 82.8611 267.319 77.0442 263.861C31.0157 236.496 0.127134 186.249 0 128.758C0.0223671 126.976 1.14501 125.357 2.68498 124.46L19.9227 114.42C26.1387 110.799 33.8204 110.795 40.0397 114.41L103.154 151.096Z" fill="#5259EE"/>
<path d="M314.105 128.635C313.999 201.897 263.946 263.42 196.244 280.848C184.712 283.817 174.311 274.446 174.311 262.538V132.732C174.311 125.611 170.524 119.027 164.369 115.445L29.9765 37.2564C29.6488 37.0179 29.5722 36.5604 29.8054 36.2289C35.729 27.8059 41.6624 21.195 49.1171 14.0623C77.2573 -12.6306 115.249 -29 157.052 -29C213.061 -29 262.211 0.382017 290.018 44.6065C305.235 68.9442 314.056 97.7513 314.105 128.635Z" fill="#5259EE"/>
</svg>
