<svg width="561" height="425" viewBox="0 0 561 425" fill="none" xmlns="http://www.w3.org/2000/svg">
<path d="M228.067 384.453C234.233 388.032 238.027 394.622 238.027 401.75V581.614C238.027 588.74 234.236 595.327 228.076 598.907L191.644 620.076C185.8 623.472 178.614 623.725 172.681 620.487C70.3173 564.631 0.792044 456.089 0.515625 331.264C0.562591 327.527 2.91832 324.134 6.14859 322.255L53.4233 294.756C59.6341 291.143 67.3054 291.14 73.5195 294.747L228.067 384.453Z" fill="#282828"/>
<path d="M660.119 331.007C659.884 493.153 542.816 627.877 388.651 655.415C376.93 657.508 366.559 648.191 366.559 636.284V326.988C366.559 319.862 362.768 313.274 356.606 309.694L63.4651 139.382C62.7772 138.883 62.6165 137.922 63.1061 137.227C75.5452 119.564 88.0049 105.701 103.659 90.7438C162.752 34.768 242.531 0.440918 330.316 0.440918C447.932 0.440918 551.143 62.0559 609.537 154.796C641.492 205.833 660.016 266.242 660.119 331.007Z" fill="#282828"/>
</svg>
