<svg width="608" height="564" viewBox="0 0 608 564" fill="none" xmlns="http://www.w3.org/2000/svg">
<path d="M607.576 282.94C607.576 206.971 585.822 136.125 548.238 76.2856C585.716 136.323 607.455 207.367 607.576 283.534C607.576 283.336 607.576 283.138 607.576 282.955V282.94Z" fill="#00101A"/>
<path d="M102.591 347.387C108.745 350.969 112.53 357.552 112.53 364.672V580.287C112.53 587.404 108.748 593.985 102.599 597.568L56.5331 624.41C50.679 627.821 43.4754 628.069 37.516 624.845C-83.4229 559.421 -165.696 431.282 -166.021 283.82C-165.966 279.425 -163.2 275.432 -159.403 273.217L-102.257 239.884C-96.0356 236.255 -88.3436 236.252 -82.1189 239.875L102.591 347.387Z" fill="#333333"/>
<path d="M607.203 388.763C606.926 580.788 467.706 740.11 285.031 770.944C273.288 772.926 262.919 763.614 262.919 751.705V381.993C262.919 374.876 259.136 368.295 252.987 364.712L-92.5475 163.402C-93.3548 162.814 -93.5435 161.687 -92.9694 160.869C-78.3806 140.096 -63.7678 123.792 -45.4082 106.201C23.8955 40.3704 117.46 0 220.413 0C358.352 0 479.397 72.4624 547.88 181.529C585.358 241.551 607.082 312.596 607.203 388.763Z" fill="#333333"/>
</svg>
