<svg width="282" height="265" viewBox="0 0 282 265" fill="none" xmlns="http://www.w3.org/2000/svg">
<path d="M109.341 123.262C115.5 126.842 119.29 133.429 119.29 140.553V219.586C119.29 226.707 115.504 233.291 109.349 236.873L100.667 241.925C94.8176 245.328 87.5977 245.618 81.7684 242.18C32.9405 213.388 0.134557 160.234 0 99.3864C0.0235904 97.5069 1.20763 95.7997 2.83183 94.8536L21.5623 83.9433C27.7783 80.3226 35.46 80.319 41.6794 83.9341L109.341 123.262Z" fill="#282828"/>
<path d="M331.286 99.2571C331.173 176.952 277.8 242.128 205.796 260.095C194.243 262.978 183.845 253.612 183.845 241.704V102.949C183.845 95.8274 180.058 89.2431 173.903 85.6618L31.6167 2.88014C31.2711 2.62868 31.1903 2.14612 31.4362 1.79649C37.6838 -7.08718 43.9417 -14.0597 51.8041 -21.5825C81.4835 -49.7353 121.553 -67 165.642 -67C224.715 -67 276.552 -36.011 305.88 10.6323C321.93 36.3011 331.233 66.6838 331.286 99.2571Z" fill="#282828"/>
</svg>
