<svg width="11" height="6" viewBox="0 0 11 6" fill="none" xmlns="http://www.w3.org/2000/svg">
<path d="M0.242127 5.77056C0.397208 5.91747 0.607514 6 0.826798 6C1.04608 6 1.25639 5.91747 1.41147 5.77056L5.50499 1.89154L9.59852 5.77056C9.75449 5.91331 9.96338 5.99229 10.1802 5.99051C10.397 5.98872 10.6045 5.90631 10.7578 5.76101C10.9111 5.61572 10.9981 5.41918 11 5.21371C11.0019 5.00824 10.9185 4.81029 10.7679 4.66249L6.08966 0.229439C5.93458 0.0825296 5.72428 6.82613e-08 5.50499 6.56464e-08C5.28571 6.30314e-08 5.0754 0.0825296 4.92032 0.229439L0.242127 4.66249C0.0870932 4.80945 1.18207e-08 5.00873 9.34282e-09 5.21653C6.86491e-09 5.42432 0.0870932 5.62361 0.242127 5.77056Z" fill="white"/>
</svg>
