<?xml version="1.0" encoding="UTF-8"?>
<svg xmlns="http://www.w3.org/2000/svg" width="18" height="19" viewBox="0 0 18 19" fill="none">
  <path d="M6.66667 11.2091V16.6338L5.1018 17.5C2.08188 16.0512 0.00799883 13.0731 0 9.63237C0.000727167 9.57725 0.0105471 9.5263 0.012365 9.47223L1.76702 8.5L6.66667 11.2091Z" fill="#5259EE"></path>
  <path d="M18.0013 9.54077C17.9946 14.1849 14.4875 18.0065 9.98178 18.5V9.11603L1.7018 4.29996L1.66797 4.27535C2.01581 3.7758 2.36211 3.38844 2.79983 2.96973C4.41414 1.43882 6.59357 0.5 8.99168 0.5C12.2047 0.5 15.0243 2.18513 16.6195 4.72151C17.4924 6.11733 17.9985 7.76949 18.0013 9.54077Z" fill="#5259EE"></path>
</svg>
