<?xml version="1.0" encoding="UTF-8"?>
<svg xmlns="http://www.w3.org/2000/svg" width="205.634" height="53.629" viewBox="0 0 205.634 53.629">
  <defs>
    <style>.a{fill:#2e3292;}.b{fill:#050910;}</style>
  </defs>
  <g transform="translate(-198.711 -99.23)">
    <path class="a" d="M202.7,578.244V566.2h8.06V562.91H202.7v-6.933h9.908v-3.285h-13.9v25.552Z" transform="translate(0 -425.39)"></path>
    <path class="a" d="M466.118,578.244v-3.285H457.01V552.692h-3.991v25.552Z" transform="translate(-238.565 -425.39)"></path>
    <path class="b" d="M1953.5,578.117V561.072l18.509,17.058V552.565h-3.628V569.35l-18.507-16.784v25.551Z" transform="translate(-1642.759 -425.271)"></path>
    <path class="b" d="M711.7,555.991v-3.285H694.453v3.285h6.532v22.266h3.991V555.991Z" transform="translate(-465.052 -425.403)"></path>
    <path class="b" d="M1003.862,578.244v-3.285h-9.91V566.2H1002V562.91h-8.051v-6.933h9.91v-3.285h-13.9v25.552Z" transform="translate(-742.267 -425.39)"></path>
    <path class="b" d="M1595.765,578.244V566.208h12.343v12.036h3.99V552.692h-3.99V562.9h-12.343v-10.21h-3.987v25.552Z" transform="translate(-1306.827 -425.39)"></path>
    <rect class="b" width="3.991" height="25.553" transform="translate(331.103 127.302)"></rect>
    <path class="b" d="M2786.693,572.7a8.248,8.248,0,0,0,5.974-2.1,7.37,7.37,0,0,0,2.191-5.6,6.135,6.135,0,0,0-1.539-4.275,15.52,15.52,0,0,0-4.744-3.111,21.177,21.177,0,0,1-3.314-1.781,3.2,3.2,0,0,1-1.29-2.637,2.905,2.905,0,0,1,.947-2.279,3.724,3.724,0,0,1,2.567-.854,4.208,4.208,0,0,1,3.646,2.437l3.122-1.624q-1.479-4.092-7.169-4.093a7.725,7.725,0,0,0-5.417,1.888,6.32,6.32,0,0,0-2.047,4.892,5.873,5.873,0,0,0,1.763,4.372,19.617,19.617,0,0,0,5.075,3.184,25.483,25.483,0,0,1,3.173,1.689,3.1,3.1,0,0,1,1.24,2.578,3.5,3.5,0,0,1-1.054,2.67,4.024,4.024,0,0,1-2.873.993q-3.9,0-4.821-3.231l-3.234,1.442q1.3,5.439,7.8,5.442Z" transform="translate(-2420.448 -419.843)"></path>
    <path class="b" d="M1229.347,566.45a9.192,9.192,0,0,1-2.487-6.644,9.317,9.317,0,0,1,2.528-6.768,8.808,8.808,0,0,1,6.6-2.608,11.34,11.34,0,0,1,7.533,2.887v-4.184a13.9,13.9,0,0,0-7.763-2.354,13,13,0,0,0-9.458,3.7,13.294,13.294,0,0,0-.033,18.557,13.13,13.13,0,0,0,9.555,3.662,13.346,13.346,0,0,0,7.7-2.221V566.07a12.251,12.251,0,0,1-7.96,2.973A8.223,8.223,0,0,1,1229.347,566.45Z" transform="translate(-960.419 -419.843)"></path>
    <path class="b" d="M2429.139,566.45a9.192,9.192,0,0,1-2.487-6.644,9.318,9.318,0,0,1,2.528-6.768,8.807,8.807,0,0,1,6.6-2.608,11.34,11.34,0,0,1,7.533,2.887v-4.184a13.9,13.9,0,0,0-7.763-2.354,13,13,0,0,0-9.458,3.7,13.294,13.294,0,0,0-.034,18.557,13.132,13.132,0,0,0,9.556,3.662,13.346,13.346,0,0,0,7.7-2.221V566.07a12.251,12.251,0,0,1-7.961,2.973A8.224,8.224,0,0,1,2429.139,566.45Z" transform="translate(-2085.936 -419.843)"></path>
    <g transform="translate(372.821 99.23)">
      <path class="b" d="M3483.759,226.688a15.688,15.688,0,0,0-2.418-8.392,15.845,15.845,0,0,1,2.417,8.415C3483.759,226.7,3483.759,226.7,3483.759,226.688Z" transform="translate(-3452.235 -210.925)"></path>
      <path class="a" d="M3022.526,326.6v9.689l-2.664,1.547a15.762,15.762,0,0,1-8.687-14.052c0-.1.018-.189.021-.286l2.988-1.736Z" transform="translate(-3011.175 -307.984)"></path>
      <path class="a" d="M3086.067,115.016a15.763,15.763,0,0,1-14.03,15.644V114.275l-14.485-8.409-.147.088a15.957,15.957,0,0,1,2.068-2.411,15.761,15.761,0,0,1,26.594,11.474Z" transform="translate(-3054.543 -99.23)"></path>
    </g>
  </g>
</svg>
