<?xml version="1.0" encoding="UTF-8"?>
<svg xmlns="http://www.w3.org/2000/svg" width="93" height="93" viewBox="0 0 93 93" fill="none">
  <g id="Group">
    <path id="Vector" d="M92.5585 46.4046C92.5585 37.3231 89.9557 28.854 85.459 21.7007C89.943 28.8777 92.544 37.3705 92.5585 46.4757C92.5585 46.452 92.5585 46.4283 92.5585 46.4064V46.4046Z" fill="white"></path>
    <path id="Vector_2" d="M33.3276 54.8003V83.3241L25.5046 87.8785C10.4076 80.2605 0.0399872 64.6016 0 46.5097C0.0036352 46.22 0.0527264 45.9521 0.0618144 45.6678L8.83356 40.5557L33.3276 54.8003Z" fill="white"></path>
    <path id="Vector_3" d="M92.5555 46.4736C92.521 70.3464 74.5067 89.9911 51.3632 92.528V44.2902L8.83314 19.5335L8.40234 19.7923C10.189 17.2244 12.2248 14.8479 14.4732 12.6955C22.7651 4.82596 33.9597 0 46.2776 0C62.7814 0 77.264 8.66231 85.4577 21.7004C89.9418 28.8756 92.5409 37.3684 92.5555 46.4736Z" fill="white"></path>
  </g>
</svg>
