<svg width="16" height="16" viewBox="0 0 16 16" fill="none" xmlns="http://www.w3.org/2000/svg">
<path d="M15.6517 7.84269C15.6517 6.30783 15.2116 4.87646 14.4512 3.66748C15.2094 4.88046 15.6492 6.31584 15.6517 7.8547C15.6517 7.8507 15.6517 7.84669 15.6517 7.843V7.84269Z" fill="#00101A"/>
<path d="M5.63563 9.26173V14.0826L4.31278 14.8523C1.75991 13.5648 0.00676177 10.9183 0 7.86055C0.000614706 7.81157 0.00891594 7.7663 0.0104527 7.71824L1.49374 6.85425L5.63563 9.26173Z" fill="white"/>
<path d="M15.652 7.85451C15.6462 11.8893 12.6 15.2094 8.68648 15.6382V7.4855L1.49472 3.30136L1.42188 3.3451C1.724 2.9111 2.06824 2.50944 2.44844 2.14567C3.85058 0.815637 5.74357 0 7.82651 0C10.6173 0 13.0663 1.46402 14.4518 3.66759C15.21 4.88027 15.6496 6.31564 15.652 7.85451Z" fill="white"/>
</svg>
